<mxfile host="Electron" modified="2025-07-03T22:12:33.443Z" agent="Mozilla/5.0 (Windows NT 10.0; Win64; x64) AppleWebKit/537.36 (KHTML, like Gecko) draw.io/24.0.4 Chrome/120.0.6099.109 Electron/28.1.0 Safari/537.36" etag="QvlnG9LdTi4hW51oPvZH" version="24.0.4" type="device">
  <diagram name="Page-1" id="dun91Gp9EllcCOIBKlNN">
    <mxGraphModel dx="1276" dy="606" grid="1" gridSize="10" guides="1" tooltips="1" connect="1" arrows="1" fold="1" page="1" pageScale="1" pageWidth="850" pageHeight="1100" math="0" shadow="0">
      <root>
        <mxCell id="0" />
        <mxCell id="1" parent="0" />
        <mxCell id="BsbERSsQqjBpEMhaPpSQ-3" value="" style="edgeStyle=orthogonalEdgeStyle;rounded=0;orthogonalLoop=1;jettySize=auto;html=1;exitX=1;exitY=0.5;exitDx=0;exitDy=0;entryX=0.5;entryY=0;entryDx=0;entryDy=0;" edge="1" parent="1" source="BsbERSsQqjBpEMhaPpSQ-1" target="BsbERSsQqjBpEMhaPpSQ-2">
          <mxGeometry relative="1" as="geometry">
            <Array as="points">
              <mxPoint x="180" y="60" />
              <mxPoint x="180" y="10" />
              <mxPoint x="230" y="10" />
            </Array>
          </mxGeometry>
        </mxCell>
        <mxCell id="BsbERSsQqjBpEMhaPpSQ-1" value="start" style="ellipse;whiteSpace=wrap;html=1;" vertex="1" parent="1">
          <mxGeometry x="40" y="20" width="120" height="80" as="geometry" />
        </mxCell>
        <mxCell id="BsbERSsQqjBpEMhaPpSQ-5" value="yes" style="edgeStyle=orthogonalEdgeStyle;rounded=0;orthogonalLoop=1;jettySize=auto;html=1;entryX=0.5;entryY=0;entryDx=0;entryDy=0;" edge="1" parent="1" source="BsbERSsQqjBpEMhaPpSQ-2" target="BsbERSsQqjBpEMhaPpSQ-4">
          <mxGeometry relative="1" as="geometry" />
        </mxCell>
        <mxCell id="BsbERSsQqjBpEMhaPpSQ-20" value="no" style="edgeStyle=orthogonalEdgeStyle;rounded=0;orthogonalLoop=1;jettySize=auto;html=1;" edge="1" parent="1" source="BsbERSsQqjBpEMhaPpSQ-2" target="BsbERSsQqjBpEMhaPpSQ-19">
          <mxGeometry relative="1" as="geometry">
            <Array as="points">
              <mxPoint x="160" y="100" />
              <mxPoint x="160" y="150" />
              <mxPoint x="80" y="150" />
            </Array>
          </mxGeometry>
        </mxCell>
        <mxCell id="BsbERSsQqjBpEMhaPpSQ-2" value="logged in" style="rhombus;whiteSpace=wrap;html=1;" vertex="1" parent="1">
          <mxGeometry x="190" y="60" width="80" height="80" as="geometry" />
        </mxCell>
        <mxCell id="BsbERSsQqjBpEMhaPpSQ-9" value="yes" style="edgeStyle=orthogonalEdgeStyle;rounded=0;orthogonalLoop=1;jettySize=auto;html=1;entryX=0.5;entryY=0;entryDx=0;entryDy=0;" edge="1" parent="1" source="BsbERSsQqjBpEMhaPpSQ-4" target="BsbERSsQqjBpEMhaPpSQ-8">
          <mxGeometry relative="1" as="geometry" />
        </mxCell>
        <mxCell id="BsbERSsQqjBpEMhaPpSQ-27" value="no" style="edgeStyle=orthogonalEdgeStyle;rounded=0;orthogonalLoop=1;jettySize=auto;html=1;entryX=0.5;entryY=0;entryDx=0;entryDy=0;" edge="1" parent="1" source="BsbERSsQqjBpEMhaPpSQ-4" target="BsbERSsQqjBpEMhaPpSQ-22">
          <mxGeometry relative="1" as="geometry">
            <Array as="points">
              <mxPoint x="320" y="100" />
              <mxPoint x="320" y="180" />
              <mxPoint x="210" y="180" />
            </Array>
          </mxGeometry>
        </mxCell>
        <mxCell id="BsbERSsQqjBpEMhaPpSQ-4" value="request is post" style="rhombus;whiteSpace=wrap;html=1;" vertex="1" parent="1">
          <mxGeometry x="350" y="60" width="80" height="80" as="geometry" />
        </mxCell>
        <mxCell id="BsbERSsQqjBpEMhaPpSQ-11" value="yes" style="edgeStyle=orthogonalEdgeStyle;rounded=0;orthogonalLoop=1;jettySize=auto;html=1;" edge="1" parent="1" source="BsbERSsQqjBpEMhaPpSQ-8" target="BsbERSsQqjBpEMhaPpSQ-10">
          <mxGeometry relative="1" as="geometry" />
        </mxCell>
        <mxCell id="BsbERSsQqjBpEMhaPpSQ-12" value="no" style="edgeStyle=orthogonalEdgeStyle;rounded=0;orthogonalLoop=1;jettySize=auto;html=1;exitX=0;exitY=0.5;exitDx=0;exitDy=0;" edge="1" parent="1" source="BsbERSsQqjBpEMhaPpSQ-8" target="BsbERSsQqjBpEMhaPpSQ-13">
          <mxGeometry relative="1" as="geometry">
            <mxPoint x="440" y="200" as="targetPoint" />
            <Array as="points">
              <mxPoint x="440" y="125" />
            </Array>
          </mxGeometry>
        </mxCell>
        <mxCell id="BsbERSsQqjBpEMhaPpSQ-8" value="user is not the author and is not an admin" style="rhombus;whiteSpace=wrap;html=1;" vertex="1" parent="1">
          <mxGeometry x="510" y="60" width="100" height="130" as="geometry" />
        </mxCell>
        <mxCell id="BsbERSsQqjBpEMhaPpSQ-33" style="edgeStyle=orthogonalEdgeStyle;rounded=0;orthogonalLoop=1;jettySize=auto;html=1;entryX=0.5;entryY=0;entryDx=0;entryDy=0;" edge="1" parent="1" source="BsbERSsQqjBpEMhaPpSQ-10" target="BsbERSsQqjBpEMhaPpSQ-28">
          <mxGeometry relative="1" as="geometry">
            <Array as="points">
              <mxPoint x="710" y="530" />
              <mxPoint x="370" y="530" />
            </Array>
          </mxGeometry>
        </mxCell>
        <mxCell id="BsbERSsQqjBpEMhaPpSQ-10" value="redirect to blogs" style="whiteSpace=wrap;html=1;" vertex="1" parent="1">
          <mxGeometry x="650" y="410" width="120" height="60" as="geometry" />
        </mxCell>
        <mxCell id="BsbERSsQqjBpEMhaPpSQ-16" value="yes" style="edgeStyle=orthogonalEdgeStyle;rounded=0;orthogonalLoop=1;jettySize=auto;html=1;entryX=0.5;entryY=0;entryDx=0;entryDy=0;" edge="1" parent="1" source="BsbERSsQqjBpEMhaPpSQ-13" target="BsbERSsQqjBpEMhaPpSQ-15">
          <mxGeometry relative="1" as="geometry" />
        </mxCell>
        <mxCell id="BsbERSsQqjBpEMhaPpSQ-18" value="no" style="edgeStyle=orthogonalEdgeStyle;rounded=0;orthogonalLoop=1;jettySize=auto;html=1;exitX=0;exitY=0.5;exitDx=0;exitDy=0;" edge="1" parent="1" source="BsbERSsQqjBpEMhaPpSQ-13" target="BsbERSsQqjBpEMhaPpSQ-17">
          <mxGeometry relative="1" as="geometry">
            <mxPoint x="425" y="280" as="sourcePoint" />
          </mxGeometry>
        </mxCell>
        <mxCell id="BsbERSsQqjBpEMhaPpSQ-13" value="post has an image" style="rhombus;whiteSpace=wrap;html=1;" vertex="1" parent="1">
          <mxGeometry x="400" y="160" width="80" height="80" as="geometry" />
        </mxCell>
        <mxCell id="BsbERSsQqjBpEMhaPpSQ-25" style="edgeStyle=orthogonalEdgeStyle;rounded=0;orthogonalLoop=1;jettySize=auto;html=1;entryX=0.5;entryY=0;entryDx=0;entryDy=0;exitX=0.5;exitY=1;exitDx=0;exitDy=0;" edge="1" parent="1" source="BsbERSsQqjBpEMhaPpSQ-15" target="BsbERSsQqjBpEMhaPpSQ-17">
          <mxGeometry relative="1" as="geometry">
            <Array as="points">
              <mxPoint x="560" y="290" />
              <mxPoint x="440" y="290" />
              <mxPoint x="440" y="340" />
              <mxPoint x="355" y="340" />
            </Array>
          </mxGeometry>
        </mxCell>
        <mxCell id="BsbERSsQqjBpEMhaPpSQ-15" value="delete image from saved images" style="whiteSpace=wrap;html=1;" vertex="1" parent="1">
          <mxGeometry x="500" y="220" width="120" height="60" as="geometry" />
        </mxCell>
        <mxCell id="BsbERSsQqjBpEMhaPpSQ-32" style="edgeStyle=orthogonalEdgeStyle;rounded=0;orthogonalLoop=1;jettySize=auto;html=1;" edge="1" parent="1" source="BsbERSsQqjBpEMhaPpSQ-17" target="BsbERSsQqjBpEMhaPpSQ-28">
          <mxGeometry relative="1" as="geometry">
            <Array as="points">
              <mxPoint x="355" y="530" />
              <mxPoint x="370" y="530" />
            </Array>
          </mxGeometry>
        </mxCell>
        <mxCell id="BsbERSsQqjBpEMhaPpSQ-17" value="redirect to post list page" style="whiteSpace=wrap;html=1;" vertex="1" parent="1">
          <mxGeometry x="295" y="410" width="120" height="60" as="geometry" />
        </mxCell>
        <mxCell id="BsbERSsQqjBpEMhaPpSQ-29" style="edgeStyle=orthogonalEdgeStyle;rounded=0;orthogonalLoop=1;jettySize=auto;html=1;" edge="1" parent="1" source="BsbERSsQqjBpEMhaPpSQ-19" target="BsbERSsQqjBpEMhaPpSQ-28">
          <mxGeometry relative="1" as="geometry">
            <Array as="points">
              <mxPoint x="80" y="530" />
              <mxPoint x="370" y="530" />
            </Array>
          </mxGeometry>
        </mxCell>
        <mxCell id="BsbERSsQqjBpEMhaPpSQ-19" value="redirect to login in" style="whiteSpace=wrap;html=1;" vertex="1" parent="1">
          <mxGeometry x="20" y="410" width="120" height="60" as="geometry" />
        </mxCell>
        <mxCell id="BsbERSsQqjBpEMhaPpSQ-31" style="edgeStyle=orthogonalEdgeStyle;rounded=0;orthogonalLoop=1;jettySize=auto;html=1;" edge="1" parent="1" source="BsbERSsQqjBpEMhaPpSQ-22" target="BsbERSsQqjBpEMhaPpSQ-28">
          <mxGeometry relative="1" as="geometry">
            <Array as="points">
              <mxPoint x="210" y="530" />
              <mxPoint x="370" y="530" />
            </Array>
          </mxGeometry>
        </mxCell>
        <mxCell id="BsbERSsQqjBpEMhaPpSQ-22" value="redirect to blogs page" style="whiteSpace=wrap;html=1;" vertex="1" parent="1">
          <mxGeometry x="150" y="410" width="120" height="60" as="geometry" />
        </mxCell>
        <mxCell id="BsbERSsQqjBpEMhaPpSQ-28" value="end" style="ellipse;whiteSpace=wrap;html=1;" vertex="1" parent="1">
          <mxGeometry x="310" y="610" width="120" height="80" as="geometry" />
        </mxCell>
      </root>
    </mxGraphModel>
  </diagram>
</mxfile>
